<svg width="1200" height="780" viewBox="0 0 1200 780" fill="none" xmlns="http://www.w3.org/2000/svg">
  <style>
    text { font-family: Inter, system-ui, -apple-system, sans-serif; }
    .title { font-size: 28px; font-weight: 800; fill: #ffffff; }
    .subtitle { font-size: 14px; fill: #9ca3af; font-weight: 500; }
    .box-label { font-size: 15px; font-weight: 700; fill: #ffffff; }
    .box-sub { font-size: 11px; fill: #9ca3af; font-weight: 500; }
    .module-text { font-size: 10px; fill: #d1d5db; font-weight: 500; }
    .arrow-label { font-size: 10px; fill: #00d4aa; font-weight: 600; }
    .chain-label { font-size: 12px; fill: #fbbf24; font-weight: 600; }
    .nfa-label { font-size: 10px; fill: #22d3ee; font-weight: 600; }
  </style>

  <!-- Background -->
  <rect width="1200" height="780" rx="20" fill="#131318"/>
  <rect width="1200" height="780" rx="20" stroke="#2a2a35" stroke-width="1"/>

  <!-- Title -->
  <text x="600" y="50" text-anchor="middle" class="title">YieldPilot — Architecture</text>
  <text x="600" y="72" text-anchor="middle" class="subtitle">Autonomous AI DeFi Agent for BNB Chain</text>

  <!-- ═══ STEP 1: User / Wallet ═══ -->
  <rect x="40" y="120" width="180" height="100" rx="16" fill="#1b1b22" stroke="#00d4aa" stroke-width="2"/>
  <circle cx="130" cy="155" r="18" fill="#00d4aa" opacity="0.15" stroke="#00d4aa" stroke-width="1.5"/>
  <text x="130" y="160" text-anchor="middle" font-size="16">&#x1F4B3;</text>
  <text x="130" y="192" text-anchor="middle" class="box-label">User Wallet</text>
  <text x="130" y="208" text-anchor="middle" class="box-sub">MetaMask / Web3</text>

  <!-- Arrow 1 → 2 -->
  <line x1="220" y1="170" x2="280" y2="170" stroke="#00d4aa" stroke-width="2" stroke-dasharray="6 3"/>
  <polygon points="280,165 290,170 280,175" fill="#00d4aa"/>
  <text x="255" y="160" text-anchor="middle" class="arrow-label">connect</text>

  <!-- ═══ STEP 2: Next.js Frontend ═══ -->
  <rect x="290" y="100" width="220" height="140" rx="16" fill="#1b1b22" stroke="#6c5ce7" stroke-width="2"/>
  <text x="400" y="132" text-anchor="middle" class="box-label">Next.js 14 Frontend</text>
  <text x="400" y="150" text-anchor="middle" class="box-sub">App Router + Tailwind</text>
  <line x1="310" y1="162" x2="490" y2="162" stroke="#2a2a35" stroke-width="1"/>
  <text x="320" y="180" class="module-text">/ Landing Page</text>
  <text x="320" y="196" class="module-text">/dashboard Analysis UI</text>
  <text x="320" y="212" class="module-text">/strategies NFT Explorer</text>
  <text x="320" y="228" class="module-text">PDF Export (jsPDF)</text>

  <!-- Arrow 2 → 3 (down to API) -->
  <line x1="400" y1="240" x2="400" y2="290" stroke="#0984e3" stroke-width="2" stroke-dasharray="6 3"/>
  <polygon points="395,290 400,300 405,290" fill="#0984e3"/>
  <text x="430" y="275" class="arrow-label">POST /api</text>

  <!-- ═══ STEP 3: API Routes ═══ -->
  <rect x="270" y="300" width="260" height="80" rx="16" fill="#1b1b22" stroke="#0984e3" stroke-width="2"/>
  <text x="400" y="332" text-anchor="middle" class="box-label">API Routes (Server)</text>
  <text x="400" y="352" text-anchor="middle" class="box-sub">/api/portfolio + /api/analyze</text>
  <text x="400" y="368" text-anchor="middle" class="box-sub">BSCScan Scanner + 8 Modules</text>

  <!-- Arrow API → BSCScan (left) -->
  <line x1="270" y1="340" x2="200" y2="340" stroke="#fbbf24" stroke-width="2" stroke-dasharray="6 3"/>
  <polygon points="200,335 190,340 200,345" fill="#fbbf24"/>
  <text x="235" y="330" text-anchor="middle" class="arrow-label">fetch</text>

  <!-- BSCScan API box -->
  <rect x="40" y="310" width="150" height="60" rx="12" fill="#1b1b22" stroke="#fbbf24" stroke-width="1.5"/>
  <text x="115" y="338" text-anchor="middle" class="box-label" style="font-size:13px">BSCScan API</text>
  <text x="115" y="358" text-anchor="middle" class="box-sub">BNB + BEP-20 data</text>

  <!-- Arrow API → 8 Modules (down) -->
  <line x1="400" y1="380" x2="400" y2="420" stroke="#00d4aa" stroke-width="2" stroke-dasharray="6 3"/>
  <polygon points="395,420 400,430 405,420" fill="#00d4aa"/>

  <!-- ═══ STEP 4: 8 Analysis Modules ═══ -->
  <rect x="100" y="430" width="600" height="120" rx="16" fill="#1b1b22" stroke="#00d4aa" stroke-width="2"/>
  <text x="400" y="458" text-anchor="middle" class="box-label">8 DeFi Analysis Modules</text>

  <!-- Module pills - Row 1 -->
  <rect x="120" y="470" width="130" height="28" rx="8" fill="#00d4aa" opacity="0.1" stroke="#00d4aa" stroke-width="1"/>
  <text x="185" y="489" text-anchor="middle" class="module-text" style="fill:#00d4aa">Portfolio Health</text>

  <rect x="260" y="470" width="120" height="28" rx="8" fill="#00d4aa" opacity="0.1" stroke="#00d4aa" stroke-width="1"/>
  <text x="320" y="489" text-anchor="middle" class="module-text" style="fill:#00d4aa">Yield Optimizer</text>

  <rect x="390" y="470" width="100" height="28" rx="8" fill="#ffc46b" opacity="0.1" stroke="#ffc46b" stroke-width="1"/>
  <text x="440" y="489" text-anchor="middle" class="module-text" style="fill:#ffc46b">IL Tracker</text>

  <rect x="500" y="470" width="130" height="28" rx="8" fill="#fd766b" opacity="0.1" stroke="#fd766b" stroke-width="1"/>
  <text x="565" y="489" text-anchor="middle" class="module-text" style="fill:#fd766b">Liquidation Guard</text>

  <!-- Module pills - Row 2 -->
  <rect x="120" y="506" width="115" height="28" rx="8" fill="#6c5ce7" opacity="0.1" stroke="#6c5ce7" stroke-width="1"/>
  <text x="177" y="525" text-anchor="middle" class="module-text" style="fill:#6c5ce7">Protocol Risk</text>

  <rect x="245" y="506" width="120" height="28" rx="8" fill="#0984e3" opacity="0.1" stroke="#0984e3" stroke-width="1"/>
  <text x="305" y="525" text-anchor="middle" class="module-text" style="fill:#0984e3">Concentration</text>

  <rect x="375" y="506" width="115" height="28" rx="8" fill="#74b9ff" opacity="0.1" stroke="#74b9ff" stroke-width="1"/>
  <text x="432" y="525" text-anchor="middle" class="module-text" style="fill:#74b9ff">Gas Optimizer</text>

  <rect x="500" y="506" width="130" height="28" rx="8" fill="#fdcb6e" opacity="0.1" stroke="#fdcb6e" stroke-width="1"/>
  <text x="565" y="525" text-anchor="middle" class="module-text" style="fill:#fdcb6e">Market Sentiment</text>

  <!-- Arrow Modules → Claude AI (right) -->
  <line x1="700" y1="490" x2="760" y2="490" stroke="#a78bfa" stroke-width="2" stroke-dasharray="6 3"/>
  <polygon points="760,485 770,490 760,495" fill="#a78bfa"/>
  <text x="735" y="480" text-anchor="middle" class="arrow-label" style="fill:#a78bfa">synthesize</text>

  <!-- ═══ Claude AI ═══ -->
  <rect x="770" y="440" width="190" height="100" rx="16" fill="#1b1b22" stroke="#a78bfa" stroke-width="2"/>
  <rect x="770" y="440" width="190" height="100" rx="16" fill="url(#aiGlow)" opacity="0.1"/>
  <text x="865" y="478" text-anchor="middle" class="box-label" style="fill:#a78bfa">Claude AI</text>
  <text x="865" y="496" text-anchor="middle" class="box-sub">Anthropic API</text>
  <text x="865" y="514" text-anchor="middle" class="box-sub">Strategy Synthesis</text>
  <text x="865" y="530" text-anchor="middle" class="box-sub" style="fill:#00d4aa">(optional enhancement)</text>

  <!-- Arrow AI → back to frontend (up) -->
  <line x1="865" y1="440" x2="865" y2="200" stroke="#a78bfa" stroke-width="2" stroke-dasharray="6 3"/>
  <line x1="865" y1="200" x2="515" y2="200" stroke="#a78bfa" stroke-width="2" stroke-dasharray="6 3"/>
  <polygon points="515,195 505,200 515,205" fill="#a78bfa"/>
  <text x="700" y="190" text-anchor="middle" class="arrow-label" style="fill:#a78bfa">recommendations</text>

  <!-- ═══ STEP 5: On-Chain Publishing ═══ -->
  <rect x="100" y="590" width="240" height="100" rx="16" fill="#1b1b22" stroke="#fbbf24" stroke-width="2"/>
  <text x="220" y="622" text-anchor="middle" class="box-label">BSC Mainnet</text>
  <text x="220" y="642" text-anchor="middle" class="box-sub">StrategyRegistry ERC-721</text>
  <text x="220" y="660" text-anchor="middle" class="chain-label" style="font-size:10px">0xF572...35E</text>
  <text x="220" y="678" text-anchor="middle" class="box-sub" style="fill:#40b68b">Verified</text>

  <rect x="380" y="590" width="240" height="100" rx="16" fill="#1b1b22" stroke="#fbbf24" stroke-width="2"/>
  <text x="500" y="622" text-anchor="middle" class="box-label">opBNB</text>
  <text x="500" y="642" text-anchor="middle" class="box-sub">StrategyRegistry ERC-721</text>
  <text x="500" y="660" text-anchor="middle" class="chain-label" style="font-size:10px">0xFED6...F0</text>
  <text x="500" y="678" text-anchor="middle" class="box-sub" style="fill:#40b68b">Verified</text>

  <!-- Arrow from modules down to chains -->
  <line x1="280" y1="550" x2="220" y2="590" stroke="#fbbf24" stroke-width="1.5" stroke-dasharray="6 3" opacity="0.6"/>
  <line x1="520" y1="550" x2="500" y2="590" stroke="#fbbf24" stroke-width="1.5" stroke-dasharray="6 3" opacity="0.6"/>
  <text x="210" y="580" class="arrow-label" style="fill:#fbbf24">mint NFT</text>
  <text x="530" y="580" class="arrow-label" style="fill:#fbbf24">mint NFT</text>

  <!-- ═══ NEW: AI Agent Identity (NFA) ═══ -->
  <rect x="680" y="590" width="200" height="100" rx="16" fill="#1b1b22" stroke="#22d3ee" stroke-width="2"/>
  <text x="780" y="616" text-anchor="middle" class="box-label" style="font-size:13px; fill:#22d3ee">AI Agent Identity (NFA)</text>
  <line x1="698" y1="626" x2="862" y2="626" stroke="#2a2a35" stroke-width="1"/>
  <text x="698" y="644" class="nfa-label">registerAgent() → on-chain ID</text>
  <text x="698" y="660" class="nfa-label">getAgentProfile() → reputation</text>
  <text x="698" y="676" class="nfa-label">isRegisteredAgent() → verify</text>

  <!-- Arrow from chain to Agent Identity -->
  <line x1="620" y1="640" x2="680" y2="640" stroke="#22d3ee" stroke-width="1.5" stroke-dasharray="6 3"/>
  <polygon points="680,635 690,640 680,645" fill="#22d3ee"/>
  <text x="650" y="630" text-anchor="middle" class="arrow-label" style="fill:#22d3ee">register</text>

  <!-- ═══ Output: NFT + PDF ═══ -->
  <rect x="920" y="590" width="140" height="48" rx="12" fill="#1b1b22" stroke="#40b68b" stroke-width="1.5"/>
  <text x="990" y="614" text-anchor="middle" class="box-label" style="font-size:12px; fill:#40b68b">Strategy NFT</text>
  <text x="990" y="630" text-anchor="middle" class="box-sub">On-chain verifiable</text>

  <rect x="920" y="648" width="140" height="42" rx="12" fill="#1b1b22" stroke="#74b9ff" stroke-width="1.5"/>
  <text x="990" y="670" text-anchor="middle" class="box-label" style="font-size:12px; fill:#74b9ff">PDF Report</text>
  <text x="990" y="684" text-anchor="middle" class="box-sub">jsPDF + html2canvas</text>

  <!-- Arrow Agent Identity → NFT output -->
  <line x1="880" y1="620" x2="920" y2="614" stroke="#40b68b" stroke-width="1.5" stroke-dasharray="6 3"/>

  <!-- ═══ Badges ═══ -->
  <!-- 28 tests -->
  <rect x="1000" y="440" width="170" height="30" rx="8" fill="#052e16" stroke="#166534" stroke-width="1"/>
  <text x="1085" y="460" text-anchor="middle" class="module-text" style="fill:#4ade80; font-weight:700">&#9989; 28/28 Tests Passing</text>

  <!-- Agent Reputation -->
  <rect x="1000" y="480" width="170" height="30" rx="8" fill="#0c1a2e" stroke="#0891b2" stroke-width="1"/>
  <text x="1085" y="500" text-anchor="middle" class="module-text" style="fill:#22d3ee; font-weight:700">&#128736; Agent Reputation</text>

  <!-- Hackathon badge -->
  <rect x="1000" y="530" width="170" height="70" rx="12" fill="#1b1b22" stroke="#fbbf24" stroke-width="1"/>
  <text x="1085" y="555" text-anchor="middle" class="module-text" style="fill:#fbbf24; font-weight:700; font-size:11px">Good Vibes Only</text>
  <text x="1085" y="572" text-anchor="middle" class="module-text" style="fill:#f97316; font-size:10px">OpenClaw Edition</text>
  <text x="1085" y="589" text-anchor="middle" class="box-sub" style="font-size:9px">DeFi Track | BNB Chain</text>

  <!-- Legend -->
  <rect x="1000" y="120" width="170" height="220" rx="12" fill="#1b1b22" stroke="#2a2a35" stroke-width="1"/>
  <text x="1085" y="148" text-anchor="middle" class="box-label" style="font-size:12px">Legend</text>
  <line x1="1020" y1="170" x2="1050" y2="170" stroke="#00d4aa" stroke-width="2"/>
  <text x="1060" y="174" class="module-text">Frontend</text>
  <line x1="1020" y1="192" x2="1050" y2="192" stroke="#0984e3" stroke-width="2"/>
  <text x="1060" y="196" class="module-text">API Layer</text>
  <line x1="1020" y1="214" x2="1050" y2="214" stroke="#a78bfa" stroke-width="2"/>
  <text x="1060" y="218" class="module-text">AI Synthesis</text>
  <line x1="1020" y1="236" x2="1050" y2="236" stroke="#fbbf24" stroke-width="2"/>
  <text x="1060" y="240" class="module-text">Blockchain</text>
  <line x1="1020" y1="258" x2="1050" y2="258" stroke="#22d3ee" stroke-width="2"/>
  <text x="1060" y="262" class="module-text">Agent Identity</text>
  <line x1="1020" y1="280" x2="1050" y2="280" stroke="#6c5ce7" stroke-width="2"/>
  <text x="1060" y="284" class="module-text">UI Framework</text>
  <line x1="1020" y1="302" x2="1050" y2="302" stroke="#40b68b" stroke-width="2"/>
  <text x="1060" y="306" class="module-text">Output</text>
  <line x1="1020" y1="324" x2="1050" y2="324" stroke="#fbbf24" stroke-width="2" stroke-dasharray="4 2"/>
  <text x="1060" y="328" class="module-text">Data flow</text>

  <defs>
    <radialGradient id="aiGlow">
      <stop stop-color="#a78bfa"/>
      <stop offset="1" stop-color="#a78bfa" stop-opacity="0"/>
    </radialGradient>
  </defs>
</svg>